<?xml version="1.0" standalone="no"?>
<!DOCTYPE svg PUBLIC "-//W3C//DTD SVG 20010904//EN"
 "http://www.w3.org/TR/2001/REC-SVG-20010904/DTD/svg10.dtd">
<svg version="1.0" xmlns="http://www.w3.org/2000/svg"
 width="567.000000pt" height="567.000000pt" viewBox="0 0 567.000000 567.000000"
 preserveAspectRatio="xMidYMid meet">
<metadata>
Created by potrace 1.11, written by Peter Selinger 2001-2013
</metadata>
<g transform="translate(0.000000,567.000000) scale(0.100000,-0.100000)"
fill="#000000" stroke="none">
<path d="M3290 5644 c-388 -114 -806 -471 -1123 -960 -295 -455 -513 -1070
-543 -1529 l-7 -108 -98 7 -97 7 -36 -32 c-112 -97 -258 -508 -435 -1214 -82
-329 -231 -993 -231 -1032 0 -25 28 -13 35 15 14 56 159 411 211 516 71 141
112 196 201 267 176 140 386 215 546 195 69 -9 71 -11 95 -164 l16 -102 57
-12 57 -12 37 -142 c21 -78 41 -147 44 -153 6 -10 1526 -321 1568 -321 11 0
52 44 106 115 l88 114 48 -6 48 -5 84 116 c82 114 85 116 118 111 87 -11 252
-117 340 -216 57 -66 135 -189 164 -261 42 -105 50 -196 46 -532 -3 -240 -1
-306 9 -306 6 0 12 2 12 5 0 2 23 125 50 272 154 813 232 1410 233 1768 1 198
-13 289 -47 324 -9 8 -75 36 -148 61 -90 32 -132 51 -131 61 1 8 17 81 37 163
64 269 80 434 80 811 0 365 -13 509 -74 796 -135 639 -435 1156 -772 1334
-127 67 -163 75 -342 74 -141 0 -171 -3 -246 -25z m285 -670 c17 -3 50 -17 74
-30 24 -13 49 -24 56 -24 7 0 15 -7 19 -15 3 -8 12 -15 20 -15 7 0 21 -11 30
-25 9 -14 23 -25 31 -25 8 0 15 -3 15 -8 0 -4 20 -30 45 -57 24 -28 51 -58 60
-67 8 -10 12 -18 8 -18 -5 0 -3 -4 3 -8 14 -8 38 -48 99 -164 99 -189 166
-417 200 -678 10 -75 16 -137 19 -202 2 -42 7 -81 10 -87 4 -5 2 -12 -3 -15
-8 -5 -6 -58 4 -83 2 -7 1 -13 -3 -13 -4 0 -8 -33 -9 -73 -9 -256 -71 -541
-159 -736 l-25 -53 -37 7 c-20 4 -48 9 -62 11 -22 4 -44 8 -150 29 -14 3 -38
7 -55 10 -16 3 -75 14 -130 25 -159 31 -316 62 -344 66 -53 9 -499 96 -566
110 -38 8 -81 16 -95 18 -57 6 -426 79 -433 86 -4 4 -10 20 -12 36 -2 16 -4
31 -5 34 -3 13 1 252 6 305 14 157 85 436 149 580 13 30 24 56 24 58 0 1 15
34 32 72 18 39 33 72 34 75 0 3 11 21 23 40 12 19 22 40 22 45 0 6 14 28 30
49 17 22 30 46 30 53 0 7 3 13 8 13 4 0 13 12 19 28 7 15 24 39 38 54 14 15
25 32 25 38 0 5 5 10 10 10 6 0 15 11 20 25 5 14 14 25 20 25 5 0 10 6 10 14
0 8 14 24 30 36 17 12 30 26 30 31 0 6 35 43 78 84 42 40 89 85 103 99 15 14
31 26 37 26 5 0 12 7 16 15 3 8 10 15 16 15 6 0 18 6 25 13 33 29 45 37 53 37
5 0 15 7 22 15 7 9 15 13 18 11 3 -3 17 3 31 13 51 36 194 85 276 94 35 4 117
-1 160 -9z"/>
</g>
</svg>
